PathFileType	4	(X/Y/Z)	c:/Users/goper/Files/vsCode/490R/osim_files/C03/C03_Static.trc
DataRate	CameraRate	NumFrames	NumMarkers	Units                	OrigDataRate	OrigDataStartFrame	OrigNumFrames
250.00	250.00	4	36	mm	250.0	1346	1538
                Frame#	Time	LPSIS			LASIS			LTH1			LTH2			LTH3			LTH4			LLFE			LMFE			LSH1			LSH2			LSH3			LSH4			LLMAL			LMMAL			LCAL			LMTP5			LTOE			LMTP1			RPSIS			RASIS			RTH1			RTH2			RTH3			RTH4			RLFE			RMFE			RSH1			RSH2			RSH3			RSH4			RLMAL			RMMAL			RCAL			RMTP1			RTOE			RMTP5		
		X1	Y1	Z1	X2	Y2	Z2	X3	Y3	Z3	X4	Y4	Z4	X5	Y5	Z5	X6	Y6	Z6	X7	Y7	Z7	X8	Y8	Z8	X9	Y9	Z9	X10	Y10	Z10	X11	Y11	Z11	X12	Y12	Z12	X13	Y13	Z13	X14	Y14	Z14	X15	Y15	Z15	X16	Y16	Z16	X17	Y17	Z17	X18	Y18	Z18	X19	Y19	Z19	X20	Y20	Z20	X21	Y21	Z21	X22	Y22	Z22	X23	Y23	Z23	X24	Y24	Z24	X25	Y25	Z25	X26	Y26	Z26	X27	Y27	Z27	X28	Y28	Z28	X29	Y29	Z29	X30	Y30	Z30	X31	Y31	Z31	X32	Y32	Z32	X33	Y33	Z33	X34	Y34	Z34	X35	Y35	Z35	X36	Y36	Z36

1346	5.38000	-404.58734	1038.99841	350.75180	-220.22221	971.03033	336.13287	-354.31192	640.46625	272.26205	-353.60797	578.50885	277.03604	-279.24506	636.39960	280.91077	-287.80243	575.59991	285.42868	-334.14191	486.75421	287.05054	-349.85623	478.38275	398.74588	-401.35541	307.58859	271.55099	-395.83731	261.50504	275.06268	-340.46820	312.25430	269.97906	-343.46417	264.45517	272.85565	-353.17404	99.30331	295.29877	-335.28857	108.54510	375.00107	-419.87177	63.06993	330.42285	-219.64511	51.12827	270.25232	-188.00824	67.67544	323.70129	-209.75519	54.84381	364.03558	-418.57465	1033.48694	460.01608	-253.38553	991.12775	542.14948	-389.25534	616.84521	569.17627	-390.73724	554.88745	559.75714	-330.31009	617.54028	595.26691	-321.55441	556.32990	592.34033	-326.15216	487.91162	579.97559	-327.13000	494.01675	464.87057	-421.70050	307.92090	594.27301	-418.87192	260.89145	596.97760	-362.50577	303.77655	612.82440	-368.94272	260.99612	613.60571	-376.05203	102.04784	601.99432	-354.16931	101.10332	523.38696	-441.91684	63.87283	556.93359	-233.93152	41.82498	542.29272	-210.61482	67.64445	589.07941	-271.01306	38.63255	646.47156
1347	5.38400	-404.56796	1038.99402	350.73477	-220.82434	970.96216	336.25412	-354.26352	640.45331	272.24921	-354.42871	578.22870	277.32806	-279.24258	636.41235	280.91235	-287.82141	575.63379	285.42450	-334.15817	486.74255	287.05820	-349.85480	478.39120	398.73352	-401.34787	307.58444	271.55923	-395.87222	261.50421	275.06821	-340.45929	312.26553	269.96844	-343.47531	264.47192	272.85999	-353.18494	99.31581	295.30411	-335.28677	108.57115	374.99695	-419.87424	63.09642	330.38309	-219.64291	51.16508	270.23233	-187.99953	67.72205	323.68787	-209.74641	54.87979	364.02133	-418.53918	1033.46399	459.99658	-253.35390	991.16394	542.13715	-389.26630	616.85736	569.12543	-390.77161	554.95056	559.64484	-330.30652	617.56488	595.24347	-321.55682	556.37848	592.32153	-326.12262	487.93198	579.97266	-327.12268	494.03690	464.87137	-421.68314	307.92145	594.25153	-418.88342	260.92203	596.95807	-362.49811	303.79196	612.82098	-368.92575	261.01175	613.60736	-376.06128	102.07251	601.98224	-354.17496	101.11548	523.38641	-441.91608	63.88537	556.93555	-233.93974	41.84509	542.30304	-210.61320	67.64925	589.09015	-270.98923	38.65078	646.46271
1348	5.38800	-404.60123	1039.00281	350.72433	-220.16510	971.11121	336.09531	-354.29385	640.44006	272.24194	-353.56927	578.49048	277.00998	-279.22623	636.41687	280.89627	-287.80298	575.65234	285.40576	-334.15979	486.75702	287.04535	-349.86176	478.41412	398.73236	-401.35547	307.56747	271.57010	-395.82300	261.49237	275.04605	-340.45886	312.27975	269.95758	-343.48337	264.46774	272.84131	-353.18619	99.31440	295.29916	-335.24442	108.59301	374.97775	-419.87332	63.11419	330.34552	-219.61897	51.18449	270.21185	-187.99696	67.73959	323.67245	-209.71523	54.90967	363.99643	-418.98090	1033.82568	459.84885	-253.32359	991.18939	542.10529	-389.26239	616.88428	569.10663	-390.72137	555.02112	559.58008	-330.26669	617.60480	595.23517	-321.51062	556.41473	592.30347	-326.08987	487.94907	579.95032	-327.11401	494.02682	464.86484	-421.68546	307.94653	594.23291	-418.85883	260.94763	596.93127	-362.48419	303.79993	612.80011	-368.90408	261.03979	613.58881	-376.04639	102.10268	601.97095	-354.19211	101.10944	523.37634	-441.91342	63.95065	556.85645	-233.94511	41.82931	542.31281	-210.62985	67.65158	589.07764	-270.96185	38.67014	646.45276
1349	5.39200	-404.61771	1039.00439	350.71393	-220.16209	971.12946	336.06995	-354.27307	640.43109	272.21255	-353.56808	578.47284	277.00137	-278.85040	636.43579	280.94073	-287.85272	575.63043	285.39429	-334.17316	486.75504	287.03940	-349.84921	478.42932	398.73151	-401.34354	307.55203	271.55093	-395.85739	261.46689	275.07230	-340.48044	312.26068	269.94623	-343.51840	264.44852	272.83365	-353.18121	99.30986	295.29404	-335.24951	108.60408	374.97437	-419.85233	63.12949	330.31946	-219.60507	51.20060	270.20242	-187.99001	67.74973	323.65543	-209.69688	54.93112	363.96759	-419.00388	1033.82849	459.80365	-253.31769	991.21967	542.09937	-389.28073	616.91815	569.08636	-390.74408	555.07965	559.54785	-330.28644	617.63239	595.22308	-321.52429	556.43256	592.30078	-326.07812	487.95795	579.93951	-327.11536	494.02365	464.85294	-421.70013	307.96786	594.21246	-418.87671	260.97287	596.91840	-362.44751	303.83432	612.77307	-368.88025	261.04611	613.58063	-376.06509	102.11653	601.95605	-354.18610	101.11941	523.37866	-441.90909	63.92539	556.85059	-233.97646	41.82181	542.29468	-210.63770	67.64555	589.08148	-270.96552	38.67796	646.43738
